<svg width="20" height="21" viewBox="0 0 20 21" fill="none" xmlns="http://www.w3.org/2000/svg">
<path d="M11.8323 10.9246L19.6199 3.13659C20.1267 2.63001 20.1267 1.81095 19.6199 1.30437C19.1133 0.797794 18.2943 0.797794 17.7877 1.30437L9.99988 9.09237L2.21228 1.30437C1.70548 0.797794 0.886669 0.797794 0.380103 1.30437C-0.126701 1.81095 -0.126701 2.63001 0.380103 3.13659L8.1677 10.9246L0.380103 18.7126C-0.126701 19.2192 -0.126701 20.0382 0.380103 20.5448C0.632555 20.7975 0.964493 20.9244 1.29619 20.9244C1.62789 20.9244 1.95959 20.7975 2.21228 20.5448L9.99988 12.7568L17.7877 20.5448C18.0404 20.7975 18.3721 20.9244 18.7038 20.9244C19.0355 20.9244 19.3672 20.7975 19.6199 20.5448C20.1267 20.0382 20.1267 19.2192 19.6199 18.7126L11.8323 10.9246Z" fill="white"/>
</svg>
